<?xml version="1.0" encoding="iso-8859-1"?>
<!-- Generator: Adobe Illustrator 18.0.0, SVG Export Plug-In . SVG Version: 6.00 Build 0)  -->
<!DOCTYPE svg PUBLIC "-//W3C//DTD SVG 1.1//EN" "http://www.w3.org/Graphics/SVG/1.1/DTD/svg11.dtd">
<svg version="1.1" id="Capa_1" xmlns="http://www.w3.org/2000/svg" xmlns:xlink="http://www.w3.org/1999/xlink" x="0px" y="0px"
	 viewBox="0 0 494.01 494.01" style="enable-background:new 0 0 494.01 494.01;" xml:space="preserve">
<path id="XMLID_181_" d="M377.47,109.284c7.023,10.687,19.076,17.766,32.834,17.766c21.712,0,39.325-17.605,39.325-39.333
	c0-21.72-17.613-39.326-39.325-39.326c-14.304,0-26.809,9.081-37.913,18.466h-51.329V41.142c0-4.548-3.681-8.229-8.23-8.229
	c-4.549,0-8.229,3.681-8.229,8.229v25.714h-16.455v-42.17c0-4.548-3.681-8.228-8.23-8.228c-4.548,0-8.228,3.68-8.228,8.228v42.17
	h-16.457V8.229c0-4.548-3.68-8.229-8.229-8.229s-8.229,3.681-8.229,8.229v58.627h-16.457v-42.17c0-4.548-3.68-8.228-8.228-8.228
	c-4.549,0-8.23,3.68-8.23,8.228v42.17h-16.455V41.142c0-4.548-3.681-8.229-8.229-8.229c-4.549,0-8.229,3.681-8.229,8.229v25.714
	h-51.329c-11.01-9.305-23.497-18.466-37.913-18.466c-21.712,0-39.325,17.606-39.325,39.326c0,21.728,17.613,39.333,39.325,39.333
	c13.757,0,25.811-7.071,32.835-17.758c6.411,8.429,12.374,18.666,15.829,31.194c8.31,30.101,0.932,64.895-21.922,103.401
	c-46.381,78.169-36.786,128.513-20.57,156.983c22.306,39.18,70.904,62.075,137.551,65.844l16.282,24.958
	c0.947,1.453,2.572,2.338,4.323,2.338c1.751,0,3.375-0.885,4.323-2.338l16.327-25.047c65.586-4.123,113.366-26.984,135.447-65.755
	c16.216-28.47,25.81-78.814-20.57-156.983c-22.853-38.506-30.231-73.3-21.922-103.401
	C365.095,127.958,371.058,117.721,377.47,109.284z M304.603,99.77v328.67c-5.303,1.212-10.719,2.314-16.455,3.166V99.77H304.603z
	 M271.69,99.77v333.765c-1.335,0.112-2.701,0.192-4.051,0.28l-12.406-19.019V99.77H271.69z M238.776,99.77v318.184l-10.396,15.933
	c-2.01-0.12-4.084-0.192-6.061-0.352V99.77H238.776z M205.862,99.77v331.836c-5.736-0.853-11.152-1.954-16.455-3.166V99.77H205.862z
	 M118.47,384.581c-17.053-29.948-10.029-72.793,20.298-123.9c27.721-46.726,36.19-90.303,25.165-129.508
	c-3.358-11.933-8.293-22.331-13.884-31.403h22.9v324.065C147.461,415.342,128.465,402.115,118.47,384.581z M375.54,384.581
	c-9.996,17.535-28.992,30.761-54.479,39.254V99.77h22.9c-5.592,9.072-10.525,19.47-13.885,31.403
	c-11.026,39.205-2.557,82.783,25.166,129.508C385.568,311.788,392.593,354.633,375.54,384.581z"/>
<g>
</g>
<g>
</g>
<g>
</g>
<g>
</g>
<g>
</g>
<g>
</g>
<g>
</g>
<g>
</g>
<g>
</g>
<g>
</g>
<g>
</g>
<g>
</g>
<g>
</g>
<g>
</g>
<g>
</g>
</svg>
